<svg width="25" height="25" viewBox="0 0 25 25" fill="none" xmlns="http://www.w3.org/2000/svg">
<path d="M10.4185 1.50909H14.5968V2.21214H16.1057V1.41068C16.1059 0.632858 15.4734 0 14.6959 0H10.3193C9.5419 0 8.90942 0.632858 8.90942 1.41068V2.21214H10.4185V1.50909Z" fill="#464646"/>
<path d="M19.5904 8.19092H5.42488C5.03674 8.19092 4.73118 8.52203 4.76246 8.90903L5.94673 23.5529C6.01272 24.3704 6.6946 25 7.51381 25H17.5012C18.3205 25 19.0023 24.3704 19.0683 23.5527L20.2526 8.90903C20.2841 8.52203 19.9785 8.19092 19.5904 8.19092ZM8.85486 23.4381C8.83903 23.439 8.8232 23.4396 8.80756 23.4396C8.41198 23.4396 8.07991 23.1316 8.0553 22.7314L7.31315 10.7096C7.2876 10.2936 7.60402 9.93557 8.01983 9.91001C8.43429 9.88483 8.79383 10.2005 8.81939 10.6167L9.56134 22.6385C9.58709 23.0545 9.27066 23.4123 8.85486 23.4381ZM13.2706 22.6851C13.2706 23.1016 12.9328 23.4394 12.516 23.4394C12.0993 23.4394 11.7615 23.1016 11.7615 22.6851V10.663C11.7615 10.2463 12.0993 9.90849 12.516 9.90849C12.9326 9.90849 13.2706 10.2463 13.2706 10.663V22.6851ZM17.7021 10.7075L16.9935 22.7293C16.97 23.1302 16.6374 23.4394 16.2411 23.4394C16.2262 23.4394 16.2111 23.439 16.196 23.4383C15.7801 23.4137 15.4627 23.0566 15.4873 22.6406L16.1957 10.6186C16.2201 10.2026 16.576 9.88522 16.9931 9.90982C17.4091 9.93423 17.7265 10.2915 17.7021 10.7075Z" fill="#464646"/>
<path d="M22.1996 5.86238L21.7041 4.37694C21.5735 3.98536 21.2069 3.72119 20.7939 3.72119H4.22116C3.80841 3.72119 3.44163 3.98536 3.31116 4.37694L2.81563 5.86238C2.72007 6.14886 2.84443 6.44107 3.07656 6.58679C3.17116 6.64611 3.28312 6.68178 3.40615 6.68178H21.6091C21.7322 6.68178 21.8443 6.64611 21.9387 6.5866C22.1708 6.44088 22.2952 6.14867 22.1996 5.86238Z" fill="#464646"/>
</svg>
