<svg width="25" height="25" viewBox="0 0 25 25" fill="none" xmlns="http://www.w3.org/2000/svg">
<path fill-rule="evenodd" clip-rule="evenodd" d="M14.1855 4.83327L17.2027 1.90786C18.5125 0.63784 19.1674 0.00283098 19.9737 0H19.9878C20.7941 0.00283098 21.449 0.63784 22.7588 1.90786C24.1447 3.25161 24.8377 3.92349 24.8407 4.76575V4.78035C24.8377 5.62261 24.1447 6.29449 22.7588 7.63824L19.9489 10.3627C17.5701 9.04994 15.5856 7.13822 14.1855 4.83327ZM12.7172 6.25701L2.23239 16.423C1.79359 16.8485 1.5742 17.0612 1.42935 17.325C1.28451 17.5888 1.22277 17.8881 1.0993 18.4867L0.0663862 23.4943C-0.00214875 23.8265 -0.0364162 23.9927 0.057638 24.0878C0.151692 24.183 0.318216 24.1507 0.651264 24.0861L5.91279 23.0658C6.49289 22.9533 6.78293 22.8971 7.04116 22.7624C7.2994 22.6277 7.51151 22.4221 7.93574 22.0107L18.4554 11.8108C16.1342 10.4225 14.1721 8.51773 12.7172 6.25701Z" fill="#464646"/>
</svg>
